# xmcd
#
# Track frame offsets:
#	150
#	28269
#	43853
#	63202
#	78774
#	95725
#	98366
#	126540
#	144291
#	165535
#	185872
#	206413
#	225625
#	250932
#	254187
#	263200
#	280046
#	284345
#	307621
#	325129
#	343058
#
# Disc length: 4733
#
# Revision: 7
# Processed by: cddbd v1.5.1PL0 Copyright (c) Steve Scherf et al.
# Submitted via: CDex 1.50Beta6
# Normalized: r5:TRMNUM;r6:TDELIM( - )
#
DISCID=32127b15
DTITLE=26_Aug_2002 - TT_Compilation
DYEAR=1900
DGENRE=Jazz
TTITLE0=Method Man, Redman, and Busta Rhymes - Simon Says Remix
TTITLE1=Thomas Newman - Six Feet Under (Photek Radio Edit)
TTITLE2=B Real, Busta Rhymes, Coolio, LL Cool J and Method Man - Hit
TTITLE3=Wyclef feat_ Destinys Child - No No No (Wyclef Remix)
TTITLE4=Method Man and Mary J_ Blige - You're All I Need
TTITLE5=The A-Team - http___www_80sNostalgia_com
TTITLE6=Morcheeba - What New York Couples Fight About
TTITLE7=American Pie 2 Soundtrack - 3 Doors Down - Be Like That (American Pie edit)
TTITLE8=Dave Matthews Band - Crash Into Me (Hip Hop Version)
TTITLE9=Dave Matthews Band - Ants Marching
TTITLE10=James - Building A Charge
TTITLE11=train - drops of jupiter
TTITLE12=The Wallflowers - 6th Avenue Heartache
TTITLE13=big lebowski - nobody fucks with the jesus
TTITLE14=Mr Hankey - Circle of Poo
TTITLE15=Coldplay - In My Place -NEW RADIO VERSION-
TTITLE16=Coldplay - In My Place (Live) crop
TTITLE17=James - Sometimes (Lester Piggot)
TTITLE18=Levellers - Julie
TTITLE19=Levellers - Hope Street
TTITLE20=Cloanto - Interview with Jay Miner - Computers and Society
EXTD=
EXTT0=
EXTT1=
EXTT2=
EXTT3=
EXTT4=
EXTT5=
EXTT6=
EXTT7=
EXTT8=
EXTT9=
EXTT10=
EXTT11=
EXTT12=
EXTT13=
EXTT14=
EXTT15=
EXTT16=
EXTT17=
EXTT18=
EXTT19=
EXTT20=
PLAYORDER=
